PathFileType	4	(X/Y/Z)	/Users/mathieubourgeois/Desktop/Analyse/Traitement/Sujet_03/Data/Transformed_Sujet_03_velo_80.trc
DataRate	CameraRate	NumFrames	NumMarkers	Units	OrigDataRate	OrigDataStartFrame	OrigNumFrames
120.000000	120.000000	4	36	mm	120.000000	1167	1868
Frame#	Time	RFHD			LFHD			RBHD			LBHD			C7			CLAV			RSHO			LSHO			STRN			T10			RBWT			LBWT			RFWT			LFWT			RKNI			LKNI			RKNE			LKNE			LANI			RANI			LANE			RANE			LTOE			RTOE			LHEE			RHEE			RHUM			LHUM			RRAD			LRAD			RWRA			RWRB			LWRA			LWRB			LCAR			RCAR			
		X1	Y1	Z1	X2	Y2	Z2	X3	Y3	Z3	X4	Y4	Z4	X5	Y5	Z5	X6	Y6	Z6	X7	Y7	Z7	X8	Y8	Z8	X9	Y9	Z9	X10	Y10	Z10	X11	Y11	Z11	X12	Y12	Z12	X13	Y13	Z13	X14	Y14	Z14	X15	Y15	Z15	X16	Y16	Z16	X17	Y17	Z17	X18	Y18	Z18	X19	Y19	Z19	X20	Y20	Z20	X21	Y21	Z21	X22	Y22	Z22	X23	Y23	Z23	X24	Y24	Z24	X25	Y25	Z25	X26	Y26	Z26	X27	Y27	Z27	X28	Y28	Z28	X29	Y29	Z29	X30	Y30	Z30	X31	Y31	Z31	X32	Y32	Z32	X33	Y33	Z33	X34	Y34	Z34	X35	Y35	Z35	X36	Y36	Z36	

1168	9.725	149.3724822998047	1560.288330078125	93.28993988037101	130.5493469238281	1557.128295898438	-58.87060928344734	39.03165054321288	1632.684936523438	108.9993057250976	12.12502956390381	1645.6884765625	-37.66626358032237	-108.9357299804688	1550.074584960938	35.57897186279286	-73.16323852539062	1397.02490234375	33.17741012573233	-44.17713546752932	1486.118041992188	202.1899414062499	-81.01646423339842	1501.41845703125	-148.9757232666016	-174.5371246337891	1260.339599609375	36.46372985839834	-325.9058837890625	1454.429443359375	39.72066879272447	-526.2299194335938	1264.381713867188	114.1945266723631	-528.38916015625	1264.265625	-9.456741333007955	-377.2293701171875	1190.557983398438	178.089141845703	-374.5412902832031	1183.381958007812	-68.51661682128918	-190.9561004638672	697.294921875	113.2541198730468	-22.57411575317382	909.9564819335938	-43.50743484497076	-196.8515167236328	744.8555908203125	226.8317871093749	-32.23438262939451	950.8245239257812	-153.2615203857422	-191.7446594238281	572.6311645507812	-53.33008575439459	-355.5557861328125	361.50927734375	107.2479782104491	-206.8854522705078	549.694580078125	-140.2482147216797	-391.4506225585938	355.3313293457031	193.4488677978515	-24.10342597961425	470.8157043457031	-92.5862731933594	-258.6584167480469	177.0677490234375	147.6907043457031	-280.5056457519531	532.658935546875	-98.48788452148443	-461.6814270019531	361.1328430175781	147.0837097167968	30.86373519897458	1190.355346679688	231.1186523437499	10.98976325988771	1193.68017578125	-152.3826904296876	84.70226287841794	1216.938354492188	285.3492126464843	58.72770690917972	1227.131103515625	-210.0498962402345	284.3893432617188	1040.408569335938	213.6833801269531	271.7041931152343	1031.698364257812	294.8932495117188	249.9017333984375	1059.331176757812	-129.808349609375	231.8976287841797	1046.07666015625	-207.9089050292969	328.7887878417969	1034.064086914062	-223.1775207519532	374.4585266113281	1032.688232421875	299.4404296875	
1169	9.733333333333333	148.9956207275391	1559.797485351562	94.07250976562491	130.3518371582031	1556.837646484375	-58.12205886840828	38.80116653442381	1632.346801757812	109.7021026611327	12.07361030578614	1645.608032226562	-36.95390701293955	-109.3808517456055	1550.023681640625	36.0116958618163	-73.59819793701172	1396.907958984375	33.52727890014639	-44.71184158325197	1485.982666015625	202.5723266601562	-81.14383697509764	1501.510375976562	-148.5990753173829	-175.0040130615234	1260.261962890625	36.48831558227529	-326.3047790527344	1454.358276367188	39.83276748657213	-526.510009765625	1264.219360351562	114.1410598754881	-528.7076416015625	1263.962524414062	-9.534134864807271	-377.3603820800781	1190.568725585938	177.9535064697264	-374.7796936035156	1182.97314453125	-68.69394683837902	-186.8600006103516	701.0914916992188	114.0548095703124	-24.41506958007812	902.7157592773438	-43.56740188598638	-192.6162872314453	748.2107543945312	227.591079711914	-34.21993637084959	944.5383911132812	-153.5584869384766	-185.2875366210938	561.6104736328125	-54.0060653686524	-361.28466796875	370.627197265625	107.3478698730468	-199.9248657226562	538.4564208984375	-141.0334167480469	-397.1232604980469	364.9921264648438	193.4699401855468	-15.8739194869995	462.3495178222656	-92.84474182128909	-267.6378784179688	184.3343963623047	148.2994079589843	-273.1737670898438	520.1961669921875	-99.53308868408209	-467.3910827636719	372.0062561035156	146.888214111328	30.71232223510739	1190.28076171875	230.9742889404296	10.99912261962892	1193.895874023438	-152.1100158691407	84.47246551513669	1216.845947265625	285.3034667968749	58.78333663940433	1227.387451171875	-209.6869506835938	284.3196716308594	1040.448486328125	213.6659240722656	271.6097717285156	1031.754028320312	294.8775329589844	249.8444519042969	1059.3564453125	-129.7069854736328	231.8114929199219	1046.195068359375	-207.8375091552735	328.7091979980469	1034.156372070312	-223.1382446289063	374.3752746582031	1032.758422851562	299.4275207519531	
1170	9.741666666666667	148.6365356445312	1559.311157226562	94.85083007812491	130.1720581054688	1556.577392578125	-57.37799835205086	38.5117950439453	1632.062866210938	110.4481887817382	12.01302337646485	1645.545288085938	-36.2301025390626	-109.7741622924805	1549.950805664062	36.44260025024403	-73.93842315673828	1396.814208984375	33.85060119628897	-45.20222091674807	1485.83935546875	202.9559326171874	-81.2726364135742	1501.6484375	-148.1610717773438	-175.4196472167969	1260.195678710938	36.5308723449706	-326.735107421875	1454.266967773438	39.97641754150377	-526.789794921875	1263.994018554688	114.0767135620116	-529.00341796875	1263.616088867188	-9.5868244171144	-377.4425659179688	1190.569458007812	177.8087158203124	-375.0029907226562	1182.487060546875	-68.7814178466798	-182.5200500488281	705.1923217773438	114.8291778564452	-26.49803924560546	895.0574340820312	-43.87727355957037	-187.9777526855469	751.822998046875	228.286895751953	-36.67926788330076	937.3101806640625	-153.9063720703126	-179.9043884277344	550.3270263671875	-54.7608261108399	-365.9339904785156	379.9837951660156	107.6915817260741	-193.5889892578125	526.6737060546875	-141.8939208984376	-402.1983947753906	375.1559143066406	193.725860595703	-7.957949161529529	453.2525939941406	-92.50726318359378	-275.9627380371094	192.4564361572266	148.7103118896484	-266.4237060546875	507.1067810058594	-100.6673431396485	-472.5087890625	383.683349609375	146.897979736328	30.55233764648435	1190.18310546875	230.8700714111327	11.03870487213137	1194.10546875	-151.7813720703126	84.22648620605466	1216.733764648438	285.3582153320312	58.83501434326175	1227.669067382812	-209.2586669921876	284.2343139648438	1040.520629882812	213.6467742919922	271.5071411132812	1031.787475585938	294.8621215820312	249.7908172607422	1059.374267578125	-129.6107482910157	231.7313079833985	1046.34521484375	-207.7850494384766	328.6134033203125	1034.255737304688	-223.1229400634766	374.2990112304687	1032.82373046875	299.4033203125	
1171	9.75	148.2210083007812	1558.893188476562	95.7002410888671	130.0237274169922	1556.367431640625	-56.52262878417977	38.20683670043944	1631.799072265625	111.2152862548827	11.97501277923584	1645.538330078125	-35.52095794677744	-110.1563110351562	1549.923828125	36.92452239990224	-74.23317718505859	1396.753540039062	34.17858886718741	-45.66390609741214	1485.704467773438	203.4207305908202	-81.39430236816405	1501.785278320312	-147.6666564941407	-175.7829132080078	1260.136962890625	36.62958908081045	-327.0640563964844	1454.17236328125	40.11343002319322	-527.0440063476562	1263.770141601562	113.9845886230467	-529.2631225585938	1263.242431640625	-9.611285209655904	-377.4999694824219	1190.585571289062	177.7173004150389	-375.2147827148438	1181.994384765625	-68.81710052490246	-178.9261932373047	710.057861328125	115.8750686645507	-28.80426025390624	886.75341796875	-44.48865890502935	-182.9720611572266	755.7238159179688	228.954116821289	-38.69797897338865	929.1057739257812	-154.1573944091797	-174.7449035644531	537.8410034179688	-55.56486129760748	-370.3988342285156	390.0516052246094	108.0463714599609	-187.8162536621093	514.36474609375	-142.8987579345704	-406.7495422363281	386.33935546875	194.1459350585937	-1.767792344093311	444.0496520996094	-93.31207275390628	-283.7476196289062	201.0818023681641	149.0671234130859	-260.3728332519531	493.644775390625	-101.8667297363282	-477.0503845214844	395.5657348632812	147.2362518310546	30.40705299377439	1190.103881835938	230.8040466308593	11.08279895782472	1194.330322265625	-151.4090881347657	83.98339843749997	1216.623901367188	285.4573974609374	58.88755035400393	1227.962036132812	-208.9224548339845	284.1871032714844	1040.58984375	213.6604919433593	271.4290161132812	1031.81591796875	294.8652954101562	249.7466888427735	1059.400268554688	-129.552963256836	231.6236572265625	1046.4892578125	-207.7054138183594	328.5123596191406	1034.351684570312	-223.1199645996094	374.2477416992187	1032.894653320312	299.3721923828125	
